<svg xmlns="http://www.w3.org/2000/svg" width="48" height="48" viewBox="0 0 48 48"><defs><linearGradient id="4jzfa" x1="0" x2="48" y1="24" y2="24" gradientUnits="userSpaceOnUse"><stop offset="0" stop-color="#f82e6f"/><stop offset="1" stop-color="#cf38ef"/></linearGradient></defs><g><g><path fill="#fff" d="M37.578 3.524v40.952A3.528 3.528 0 0 1 34.055 48H13.913a3.528 3.528 0 0 1-3.523-3.525V3.524A3.528 3.528 0 0 1 13.913 0h20.143a3.528 3.528 0 0 1 3.522 3.524zM11.99 36.8h23.989V6.4h-23.99zm0-33.276V4.8h23.989V3.524c0-1.06-.863-1.924-1.924-1.924H13.913c-1.06 0-1.923.863-1.923 1.924zm23.989 40.952V38.4h-23.99v6.076c0 1.06.864 1.924 1.924 1.924h20.143c1.06 0 1.923-.863 1.923-1.924zM27.183 42.4c0 1.765-1.435 3.2-3.199 3.2a3.202 3.202 0 0 1-3.198-3.2c0-1.765 1.434-3.2 3.198-3.2a3.203 3.203 0 0 1 3.199 3.2zm-1.6 0c0-.882-.717-1.6-1.599-1.6a1.601 1.601 0 0 0 0 3.2c.882 0 1.6-.718 1.6-1.6zM19.987 3.2c0-.442.358-.8.8-.8h3.198a.8.8 0 1 1 0 1.6h-3.198a.8.8 0 0 1-.8-.8zm5.598 0c0-.442.357-.8.8-.8h.799a.799.799 0 1 1 0 1.6h-.8a.8.8 0 0 1-.8-.8zm19.68 13.56a.797.797 0 0 1-1.13 0 .8.8 0 0 1 0-1.132c2.987-2.99 2.987-7.853 0-10.842a.8.8 0 1 1 1.13-1.13c3.611 3.612 3.611 9.491 0 13.103zM43.9 10.317c0 1.83-.71 3.55-2.002 4.842a.798.798 0 0 1-1.13 0 .8.8 0 0 1 0-1.131 5.212 5.212 0 0 0 1.533-3.71 5.214 5.214 0 0 0-1.534-3.712.8.8 0 1 1 1.131-1.131 6.8 6.8 0 0 1 2.002 4.842zm-40.064 5.31a.8.8 0 1 1-1.13 1.131c-3.612-3.613-3.612-9.491 0-13.104a.8.8 0 1 1 1.13 1.131c-2.988 2.99-2.988 7.853 0 10.842zm3.367-9.242a5.209 5.209 0 0 0-1.533 3.71c0 1.404.544 2.722 1.533 3.712a.8.8 0 1 1-1.13 1.13 6.804 6.804 0 0 1-2.003-4.841c0-1.83.711-3.55 2.003-4.842a.799.799 0 1 1 1.13 1.131z"/><path fill="url(#4jzfa)" d="M37.578 3.524v40.952A3.528 3.528 0 0 1 34.055 48H13.913a3.528 3.528 0 0 1-3.523-3.525V3.524A3.528 3.528 0 0 1 13.913 0h20.143a3.528 3.528 0 0 1 3.522 3.524zM11.99 36.8h23.989V6.4h-23.99zm0-33.276V4.8h23.989V3.524c0-1.06-.863-1.924-1.924-1.924H13.913c-1.06 0-1.923.863-1.923 1.924zm23.989 40.952V38.4h-23.99v6.076c0 1.06.864 1.924 1.924 1.924h20.143c1.06 0 1.923-.863 1.923-1.924zM27.183 42.4c0 1.765-1.435 3.2-3.199 3.2a3.202 3.202 0 0 1-3.198-3.2c0-1.765 1.434-3.2 3.198-3.2a3.203 3.203 0 0 1 3.199 3.2zm-1.6 0c0-.882-.717-1.6-1.599-1.6a1.601 1.601 0 0 0 0 3.2c.882 0 1.6-.718 1.6-1.6zM19.987 3.2c0-.442.358-.8.8-.8h3.198a.8.8 0 1 1 0 1.6h-3.198a.8.8 0 0 1-.8-.8zm5.598 0c0-.442.357-.8.8-.8h.799a.799.799 0 1 1 0 1.6h-.8a.8.8 0 0 1-.8-.8zm19.68 13.56a.797.797 0 0 1-1.13 0 .8.8 0 0 1 0-1.132c2.987-2.99 2.987-7.853 0-10.842a.8.8 0 1 1 1.13-1.13c3.611 3.612 3.611 9.491 0 13.103zM43.9 10.317c0 1.83-.71 3.55-2.002 4.842a.798.798 0 0 1-1.13 0 .8.8 0 0 1 0-1.131 5.212 5.212 0 0 0 1.533-3.71 5.214 5.214 0 0 0-1.534-3.712.8.8 0 1 1 1.131-1.131 6.8 6.8 0 0 1 2.002 4.842zm-40.064 5.31a.8.8 0 1 1-1.13 1.131c-3.612-3.613-3.612-9.491 0-13.104a.8.8 0 1 1 1.13 1.131c-2.988 2.99-2.988 7.853 0 10.842zm3.367-9.242a5.209 5.209 0 0 0-1.533 3.71c0 1.404.544 2.722 1.533 3.712a.8.8 0 1 1-1.13 1.13 6.804 6.804 0 0 1-2.003-4.841c0-1.83.711-3.55 2.003-4.842a.799.799 0 1 1 1.13 1.131z"/></g></g></svg>