<svg xmlns="http://www.w3.org/2000/svg" width="54" height="54" viewBox="0 0 54 54"><defs><linearGradient id="u1oxa" x1="0" x2="54" y1="27" y2="27" gradientUnits="userSpaceOnUse"><stop offset="0" stop-color="#f82e6f"/><stop offset="1" stop-color="#cf38ef"/></linearGradient></defs><g><g><path fill="#fff" d="M54 24.5v6c0 .493-.36.913-.85.987l-3.281.505a5.409 5.409 0 0 0-4.158 3.201 5.41 5.41 0 0 0 .482 5.225l1.786 2.638a1 1 0 0 1-.121 1.268l-4.242 4.242a1 1 0 0 1-1.298.1l-1.884-1.381a5.404 5.404 0 0 0-5.297-.64 5.398 5.398 0 0 0-3.294 4.198l-.355 2.309A.998.998 0 0 1 30.5 54h-6a1 1 0 0 1-.982-.811l-.602-3.128a5.41 5.41 0 0 0-3.354-4.035 5.401 5.401 0 0 0-5.202.677l-2.68 1.964a1 1 0 0 1-1.297-.1L6.14 44.325a1 1 0 0 1-.121-1.268l1.786-2.638a5.413 5.413 0 0 0 .482-5.226 5.408 5.408 0 0 0-4.157-3.2l-3.283-.505A1 1 0 0 1 0 30.5v-6c0-.48.34-.892.81-.981l3.128-.602a5.414 5.414 0 0 0 4.036-3.353 5.412 5.412 0 0 0-.677-5.203l-1.964-2.68c-.291-.398-.249-.95.1-1.298L9.676 6.14c.339-.339.87-.39 1.268-.121l3.406 2.308a5.419 5.419 0 0 0 5.131.52 5.422 5.422 0 0 0 3.26-3.996l.777-4.04A1 1 0 0 1 24.5 0h6a1 1 0 0 1 .988.847l.505 3.282a5.412 5.412 0 0 0 3.2 4.158 5.412 5.412 0 0 0 5.225-.482l2.638-1.786a1 1 0 0 1 1.268.12l4.242 4.243a1 1 0 0 1 .1 1.298l-1.964 2.679a5.406 5.406 0 0 0-.677 5.203 5.406 5.406 0 0 0 4.035 3.354l3.128.602A1 1 0 0 1 54 24.5zm-2 .826l-2.315-.444a7.4 7.4 0 0 1-5.52-4.587 7.399 7.399 0 0 1 .925-7.117l1.457-1.986-3.052-3.052-1.954 1.323a7.405 7.405 0 0 1-7.146.659 7.403 7.403 0 0 1-4.378-5.687L29.642 2h-4.316l-.621 3.228a7.421 7.421 0 0 1-4.458 5.468 7.412 7.412 0 0 1-7.018-.713l-2.723-1.845-3.052 3.052 1.457 1.988a7.402 7.402 0 0 1 .926 7.117 7.403 7.403 0 0 1-5.52 4.587L2 25.327v4.315l2.434.375a7.402 7.402 0 0 1 5.687 4.377 7.402 7.402 0 0 1-.66 7.146l-1.323 1.954 3.052 3.052 1.987-1.457a7.405 7.405 0 0 1 7.115-.926 7.404 7.404 0 0 1 4.588 5.52L25.326 52h4.316l.224-1.46a7.382 7.382 0 0 1 4.505-5.741 7.39 7.39 0 0 1 7.246.874l1.192.874 3.052-3.052-1.323-1.954a7.402 7.402 0 0 1-.66-7.146 7.401 7.401 0 0 1 5.687-4.378L52 29.642zM38 27.5C38 33.29 33.29 38 27.5 38S17 33.29 17 27.5 21.71 17 27.5 17 38 21.71 38 27.5zm-2 0c0-4.687-3.813-8.5-8.5-8.5-4.687 0-8.5 3.813-8.5 8.5 0 4.687 3.813 8.5 8.5 8.5 4.687 0 8.5-3.813 8.5-8.5zm-3 0c0 3.032-2.467 5.5-5.5 5.5a5.507 5.507 0 0 1-5.5-5.5c0-3.032 2.467-5.5 5.5-5.5s5.5 2.468 5.5 5.5zm-2 0c0-1.93-1.57-3.5-3.5-3.5S24 25.57 24 27.5s1.57 3.5 3.5 3.5 3.5-1.57 3.5-3.5z"/><path fill="url(#u1oxa)" d="M54 24.5v6c0 .493-.36.913-.85.987l-3.281.505a5.409 5.409 0 0 0-4.158 3.201 5.41 5.41 0 0 0 .482 5.225l1.786 2.638a1 1 0 0 1-.121 1.268l-4.242 4.242a1 1 0 0 1-1.298.1l-1.884-1.381a5.404 5.404 0 0 0-5.297-.64 5.398 5.398 0 0 0-3.294 4.198l-.355 2.309A.998.998 0 0 1 30.5 54h-6a1 1 0 0 1-.982-.811l-.602-3.128a5.41 5.41 0 0 0-3.354-4.035 5.401 5.401 0 0 0-5.202.677l-2.68 1.964a1 1 0 0 1-1.297-.1L6.14 44.325a1 1 0 0 1-.121-1.268l1.786-2.638a5.413 5.413 0 0 0 .482-5.226 5.408 5.408 0 0 0-4.157-3.2l-3.283-.505A1 1 0 0 1 0 30.5v-6c0-.48.34-.892.81-.981l3.128-.602a5.414 5.414 0 0 0 4.036-3.353 5.412 5.412 0 0 0-.677-5.203l-1.964-2.68c-.291-.398-.249-.95.1-1.298L9.676 6.14c.339-.339.87-.39 1.268-.121l3.406 2.308a5.419 5.419 0 0 0 5.131.52 5.422 5.422 0 0 0 3.26-3.996l.777-4.04A1 1 0 0 1 24.5 0h6a1 1 0 0 1 .988.847l.505 3.282a5.412 5.412 0 0 0 3.2 4.158 5.412 5.412 0 0 0 5.225-.482l2.638-1.786a1 1 0 0 1 1.268.12l4.242 4.243a1 1 0 0 1 .1 1.298l-1.964 2.679a5.406 5.406 0 0 0-.677 5.203 5.406 5.406 0 0 0 4.035 3.354l3.128.602A1 1 0 0 1 54 24.5zm-2 .826l-2.315-.444a7.4 7.4 0 0 1-5.52-4.587 7.399 7.399 0 0 1 .925-7.117l1.457-1.986-3.052-3.052-1.954 1.323a7.405 7.405 0 0 1-7.146.659 7.403 7.403 0 0 1-4.378-5.687L29.642 2h-4.316l-.621 3.228a7.421 7.421 0 0 1-4.458 5.468 7.412 7.412 0 0 1-7.018-.713l-2.723-1.845-3.052 3.052 1.457 1.988a7.402 7.402 0 0 1 .926 7.117 7.403 7.403 0 0 1-5.52 4.587L2 25.327v4.315l2.434.375a7.402 7.402 0 0 1 5.687 4.377 7.402 7.402 0 0 1-.66 7.146l-1.323 1.954 3.052 3.052 1.987-1.457a7.405 7.405 0 0 1 7.115-.926 7.404 7.404 0 0 1 4.588 5.52L25.326 52h4.316l.224-1.46a7.382 7.382 0 0 1 4.505-5.741 7.39 7.39 0 0 1 7.246.874l1.192.874 3.052-3.052-1.323-1.954a7.402 7.402 0 0 1-.66-7.146 7.401 7.401 0 0 1 5.687-4.378L52 29.642zM38 27.5C38 33.29 33.29 38 27.5 38S17 33.29 17 27.5 21.71 17 27.5 17 38 21.71 38 27.5zm-2 0c0-4.687-3.813-8.5-8.5-8.5-4.687 0-8.5 3.813-8.5 8.5 0 4.687 3.813 8.5 8.5 8.5 4.687 0 8.5-3.813 8.5-8.5zm-3 0c0 3.032-2.467 5.5-5.5 5.5a5.507 5.507 0 0 1-5.5-5.5c0-3.032 2.467-5.5 5.5-5.5s5.5 2.468 5.5 5.5zm-2 0c0-1.93-1.57-3.5-3.5-3.5S24 25.57 24 27.5s1.57 3.5 3.5 3.5 3.5-1.57 3.5-3.5z"/></g></g></svg>