<svg xmlns="http://www.w3.org/2000/svg" width="43" height="43" viewBox="0 0 43 43"><defs><linearGradient id="rufea" x1="0" x2="43" y1="21" y2="21.97" gradientUnits="userSpaceOnUse"><stop offset="0" stop-color="#f82e6f"/><stop offset="1" stop-color="#cf38ef"/></linearGradient></defs><g><g><path fill="#fff" d="M40.952 11.932L12.882 40.02c-.005.006-.013.01-.02.016-.017.016-.037.027-.056.042a.765.765 0 0 1-.233.126c-.02.007-.039.019-.06.023L.955 42.981a.778.778 0 0 1-.73-.208.78.78 0 0 1-.153-.23.776.776 0 0 1-.074-.314l.003-.03a.778.778 0 0 1 .017-.157L2.77 30.476c.002-.008.007-.016.009-.023.006-.02.016-.038.023-.059a.759.759 0 0 1 .097-.186l.045-.06c.012-.013.02-.03.033-.043L31.045 2.018a7.012 7.012 0 0 1 9.908 0c2.731 2.733 2.731 7.18-.001 9.914zM32.74 2.613l7.618 7.623c1.596-2.134 1.43-5.178-.506-7.117-1.936-1.937-4.978-2.103-7.112-.506zm4.36 10.971l-7.706-7.71-1.1 1.1 7.705 7.712zM3.86 40.237l-.59.59 8.351-1.99.382-3.443-3.986.443a.717.717 0 0 1-.085.005h-.003a.706.706 0 0 1-.085-.005c-.03-.004-.055-.02-.084-.028a.823.823 0 0 1-.162-.05.784.784 0 0 1-.107-.066.797.797 0 0 1-.2-.203.76.76 0 0 1-.113-.27c-.005-.025-.018-.046-.022-.072-.003-.03.008-.056.008-.085 0-.03-.01-.056-.008-.086l.443-3.99-3.442.383-1.987 8.356.589-.59a.78.78 0 0 1 1.1 1.101zm9.492-2.89l21.547-21.56-7.706-7.711L5.646 29.637l2.478-.276 17.42-17.429a.778.778 0 1 1 1.1 1.101l-17.42 17.43-.412 3.717 3.715-.413 17.418-17.43a.778.778 0 1 1 1.1 1.101l-17.417 17.43zm25.95-25.966l-7.706-7.71-1.101 1.101 7.706 7.711z"/><path fill="url(#rufea)" d="M40.952 11.932L12.882 40.02c-.005.006-.013.01-.02.016-.017.016-.037.027-.056.042a.765.765 0 0 1-.233.126c-.02.007-.039.019-.06.023L.955 42.981a.778.778 0 0 1-.73-.208.78.78 0 0 1-.153-.23.776.776 0 0 1-.074-.314l.003-.03a.778.778 0 0 1 .017-.157L2.77 30.476c.002-.008.007-.016.009-.023.006-.02.016-.038.023-.059a.759.759 0 0 1 .097-.186l.045-.06c.012-.013.02-.03.033-.043L31.045 2.018a7.012 7.012 0 0 1 9.908 0c2.731 2.733 2.731 7.18-.001 9.914zM32.74 2.613l7.618 7.623c1.596-2.134 1.43-5.178-.506-7.117-1.936-1.937-4.978-2.103-7.112-.506zm4.36 10.971l-7.706-7.71-1.1 1.1 7.705 7.712zM3.86 40.237l-.59.59 8.351-1.99.382-3.443-3.986.443a.717.717 0 0 1-.085.005h-.003a.706.706 0 0 1-.085-.005c-.03-.004-.055-.02-.084-.028a.823.823 0 0 1-.162-.05.784.784 0 0 1-.107-.066.797.797 0 0 1-.2-.203.76.76 0 0 1-.113-.27c-.005-.025-.018-.046-.022-.072-.003-.03.008-.056.008-.085 0-.03-.01-.056-.008-.086l.443-3.99-3.442.383-1.987 8.356.589-.59a.78.78 0 0 1 1.1 1.101zm9.492-2.89l21.547-21.56-7.706-7.711L5.646 29.637l2.478-.276 17.42-17.429a.778.778 0 1 1 1.1 1.101l-17.42 17.43-.412 3.717 3.715-.413 17.418-17.43a.778.778 0 1 1 1.1 1.101l-17.417 17.43zm25.95-25.966l-7.706-7.71-1.101 1.101 7.706 7.711z"/></g></g></svg>