<svg xmlns="http://www.w3.org/2000/svg" width="48" height="48" viewBox="0 0 48 48"><defs><linearGradient id="zinaa" x1="0" x2="48" y1="24" y2="24" gradientUnits="userSpaceOnUse"><stop offset="0" stop-color="#f82e6f"/><stop offset="1" stop-color="#cf38ef"/></linearGradient></defs><g><g><path fill="#fff" d="M48 5.236a5.242 5.242 0 0 1-5.236 5.236 5.207 5.207 0 0 1-3.511-1.363l-8.435 8.435a6.936 6.936 0 0 1 0 8.549l6.693 6.693a3.443 3.443 0 0 1 1.762-.495 3.495 3.495 0 0 1 3.49 3.49 3.495 3.495 0 0 1-3.49 3.492 3.495 3.495 0 0 1-3.491-3.491c0-.646.187-1.243.495-1.763l-6.693-6.693a6.938 6.938 0 0 1-3.401 1.413v8.867c2.472.418 4.363 2.568 4.363 5.157A5.242 5.242 0 0 1 25.31 48a5.242 5.242 0 0 1-5.236-5.237 5.24 5.24 0 0 1 4.363-5.157v-8.867a6.938 6.938 0 0 1-3.402-1.413L9.84 38.522c.404.743.634 1.593.634 2.496a5.242 5.242 0 0 1-5.237 5.236A5.242 5.242 0 0 1 0 41.018a5.242 5.242 0 0 1 5.236-5.236c1.352 0 2.582.519 3.512 1.363L19.8 26.092a6.936 6.936 0 0 1 0-8.549l-6.693-6.692a3.446 3.446 0 0 1-1.762.494 3.494 3.494 0 0 1-3.49-3.49 3.494 3.494 0 0 1 3.49-3.491 3.494 3.494 0 0 1 3.491 3.49c0 .646-.187 1.243-.495 1.762l6.693 6.693a6.94 6.94 0 0 1 8.549.001l8.578-8.578a5.205 5.205 0 0 1-.634-2.496A5.242 5.242 0 0 1 42.764 0 5.242 5.242 0 0 1 48 5.236zM11.345 9.6c.963 0 1.746-.783 1.746-1.746 0-.962-.783-1.745-1.746-1.745-.962 0-1.745.783-1.745 1.745 0 .963.783 1.746 1.745 1.746zM8.727 41.018a3.494 3.494 0 0 0-3.49-3.49 3.494 3.494 0 0 0-3.492 3.49 3.494 3.494 0 0 0 3.491 3.49 3.494 3.494 0 0 0 3.491-3.49zm16.582-1.745a3.494 3.494 0 0 0-3.49 3.49 3.494 3.494 0 0 0 3.49 3.491 3.494 3.494 0 0 0 3.49-3.49 3.494 3.494 0 0 0-3.49-3.491zm5.236-17.455a5.242 5.242 0 0 0-5.236-5.236 5.242 5.242 0 0 0-5.236 5.236 5.242 5.242 0 0 0 5.236 5.236 5.242 5.242 0 0 0 5.236-5.236zm8.728 12.218c-.963 0-1.746.783-1.746 1.746 0 .962.783 1.745 1.746 1.745.962 0 1.745-.783 1.745-1.745 0-.963-.783-1.746-1.745-1.746zm6.982-28.8a3.494 3.494 0 0 0-3.491-3.49 3.494 3.494 0 0 0-3.491 3.49 3.494 3.494 0 0 0 3.49 3.491 3.494 3.494 0 0 0 3.492-3.49z"/><path fill="url(#zinaa)" d="M48 5.236a5.242 5.242 0 0 1-5.236 5.236 5.207 5.207 0 0 1-3.511-1.363l-8.435 8.435a6.936 6.936 0 0 1 0 8.549l6.693 6.693a3.443 3.443 0 0 1 1.762-.495 3.495 3.495 0 0 1 3.49 3.49 3.495 3.495 0 0 1-3.49 3.492 3.495 3.495 0 0 1-3.491-3.491c0-.646.187-1.243.495-1.763l-6.693-6.693a6.938 6.938 0 0 1-3.401 1.413v8.867c2.472.418 4.363 2.568 4.363 5.157A5.242 5.242 0 0 1 25.31 48a5.242 5.242 0 0 1-5.236-5.237 5.24 5.24 0 0 1 4.363-5.157v-8.867a6.938 6.938 0 0 1-3.402-1.413L9.84 38.522c.404.743.634 1.593.634 2.496a5.242 5.242 0 0 1-5.237 5.236A5.242 5.242 0 0 1 0 41.018a5.242 5.242 0 0 1 5.236-5.236c1.352 0 2.582.519 3.512 1.363L19.8 26.092a6.936 6.936 0 0 1 0-8.549l-6.693-6.692a3.446 3.446 0 0 1-1.762.494 3.494 3.494 0 0 1-3.49-3.49 3.494 3.494 0 0 1 3.49-3.491 3.494 3.494 0 0 1 3.491 3.49c0 .646-.187 1.243-.495 1.762l6.693 6.693a6.94 6.94 0 0 1 8.549.001l8.578-8.578a5.205 5.205 0 0 1-.634-2.496A5.242 5.242 0 0 1 42.764 0 5.242 5.242 0 0 1 48 5.236zM11.345 9.6c.963 0 1.746-.783 1.746-1.746 0-.962-.783-1.745-1.746-1.745-.962 0-1.745.783-1.745 1.745 0 .963.783 1.746 1.745 1.746zM8.727 41.018a3.494 3.494 0 0 0-3.49-3.49 3.494 3.494 0 0 0-3.492 3.49 3.494 3.494 0 0 0 3.491 3.49 3.494 3.494 0 0 0 3.491-3.49zm16.582-1.745a3.494 3.494 0 0 0-3.49 3.49 3.494 3.494 0 0 0 3.49 3.491 3.494 3.494 0 0 0 3.49-3.49 3.494 3.494 0 0 0-3.49-3.491zm5.236-17.455a5.242 5.242 0 0 0-5.236-5.236 5.242 5.242 0 0 0-5.236 5.236 5.242 5.242 0 0 0 5.236 5.236 5.242 5.242 0 0 0 5.236-5.236zm8.728 12.218c-.963 0-1.746.783-1.746 1.746 0 .962.783 1.745 1.746 1.745.962 0 1.745-.783 1.745-1.745 0-.963-.783-1.746-1.745-1.746zm6.982-28.8a3.494 3.494 0 0 0-3.491-3.49 3.494 3.494 0 0 0-3.491 3.49 3.494 3.494 0 0 0 3.49 3.491 3.494 3.494 0 0 0 3.492-3.49z"/></g></g></svg>