<svg xmlns="http://www.w3.org/2000/svg" width="60" height="16" viewBox="0 0 60 16"><g><g><path fill="#fff" d="M16 8c0 4.41-3.589 8-8 8s-8-3.59-8-8c0-4.411 3.589-8 8-8s8 3.589 8 8zm-2 0c0-3.309-2.691-6-6-6C4.69 2 2 4.69 2 8s2.69 6 6 6c3.309 0 6-2.691 6-6zm46 0c0 4.41-3.589 8-8 8s-8-3.59-8-8c0-4.411 3.589-8 8-8s8 3.589 8 8zm-2 0c0-3.309-2.691-6-6-6-3.31 0-6 2.691-6 6s2.69 6 6 6c3.309 0 6-2.691 6-6zM38 8c0 4.41-3.589 8-8 8s-8-3.59-8-8c0-4.411 3.589-8 8-8s8 3.589 8 8zm-2 0c0-3.309-2.691-6-6-6-3.31 0-6 2.691-6 6s2.69 6 6 6c3.309 0 6-2.691 6-6z"/></g></g></svg>