<?xml version="1.0" encoding="UTF-8"?>
<!DOCTYPE svg PUBLIC "-//W3C//DTD SVG 1.1//EN" "http://www.w3.org/Graphics/SVG/1.1/DTD/svg11.dtd">
<!-- Creator: CorelDRAW X6 -->
<svg xmlns="http://www.w3.org/2000/svg" xml:space="preserve" width="113.778mm" height="114.976mm" version="1.1" style="shape-rendering:geometricPrecision; text-rendering:geometricPrecision; image-rendering:optimizeQuality; fill-rule:evenodd; clip-rule:evenodd"
viewBox="0 0 251 254"
 xmlns:xlink="http://www.w3.org/1999/xlink">
 <defs>
  <style type="text/css">
   <![CDATA[
    .fil0 {fill:#2B2A29}
    .fil1 {fill:url(#id0)}
    .fil3 {fill:url(#id1)}
    .fil2 {fill:url(#id2)}
   ]]>
  </style>
  <linearGradient id="id0" gradientUnits="userSpaceOnUse" x1="147.191" y1="96.5173" x2="185.931" y2="96.5173">
   <stop offset="0" style="stop-color:#E5097F"/>
   <stop offset="1" style="stop-color:#A82682"/>
  </linearGradient>
  <linearGradient id="id1" gradientUnits="userSpaceOnUse" x1="108.699" y1="118.18" x2="154.464" y2="118.18">
   <stop offset="0" style="stop-color:#E6007E"/>
   <stop offset="1" style="stop-color:#A82682"/>
  </linearGradient>
  <linearGradient id="id2" gradientUnits="userSpaceOnUse" xlink:href="#id1" x1="-19.6756" y1="130.944" x2="251.454" y2="130.944">
  </linearGradient>
 </defs>
 <g id="Слой_x0020_1">
  <metadata id="CorelCorpID_0Corel-Layer"/>
  <path class="fil0" d="M91 202c5,1 12,8 29,12 11,3 25,4 37,2 31,-4 60,-22 76,-48 30,-51 14,-113 -32,-142 -39,-24 -90,-21 -123,8 -14,12 -29,32 -32,51l7 -12c16,-27 43,-46 77,-47 21,-1 41,6 55,16 3,2 8,5 10,8 24,24 37,54 28,91 -2,9 -6,19 -10,26 -5,8 -10,14 -15,20 -21,19 -49,30 -80,25 -16,-3 -20,-7 -26,-8z"/>
  <path class="fil0" d="M97 49c-6,0 -9,-2 -11,0 -1,1 -3,8 -3,9l19 30c3,5 6,11 10,15l3 -3c3,-3 6,-4 10,-6 -5,-10 -23,-36 -29,-46z"/>
  <path class="fil1" d="M155 113c4,-1 7,-4 10,-6 17,-12 21,-9 20,-23 -4,-1 -8,-4 -12,-2l-26 17c3,4 7,6 8,14z"/>
  <path class="fil2" d="M251 152c-1,1 -1,2 -2,4l-1 1c0,0 0,0 0,1 -12,26 -27,44 -52,57 -48,26 -107,12 -141,-29 -42,-50 -30,-128 20,-163 13,-9 34,-20 55,-22 -27,-3 -55,8 -72,19 -65,42 -79,127 -29,188 30,37 85,56 134,40 27,-9 48,-24 62,-42 10,-12 24,-39 25,-55z"/>
  <path class="fil3" d="M113 122c4,23 41,20 38,-6 -3,-25 -42,-20 -38,6z"/>
 </g>
</svg>
