<?xml version="1.0" encoding="UTF-8"?>
<!DOCTYPE svg PUBLIC "-//W3C//DTD SVG 1.1//EN" "http://www.w3.org/Graphics/SVG/1.1/DTD/svg11.dtd">
<!-- Creator: CorelDRAW X6 -->
<svg xmlns="http://www.w3.org/2000/svg" xml:space="preserve" width="259.651mm" height="213.921mm" version="1.1" style="shape-rendering:geometricPrecision; text-rendering:geometricPrecision; image-rendering:optimizeQuality; fill-rule:evenodd; clip-rule:evenodd"
viewBox="0 0 1273 1049"
 xmlns:xlink="http://www.w3.org/1999/xlink">
 <defs>
  <style type="text/css">
   <![CDATA[
    .fil0 {fill:#2B2A29}
    .fil9 {fill:#2B2A29;fill-rule:nonzero}
    .fil1 {fill:url(#id4)}
    .fil4 {fill:url(#id5)}
    .fil5 {fill:url(#id6)}
    .fil6 {fill:url(#id7)}
    .fil7 {fill:url(#id8)}
    .fil8 {fill:url(#id9)}
    .fil3 {fill:url(#id10)}
    .fil2 {fill:url(#id11)}
   ]]>
  </style>
     <mask id="id0">
  <linearGradient id="id1" gradientUnits="userSpaceOnUse" x1="1220.54" y1="701.071" x2="1140.28" y2="701.071">
   <stop offset="0" style="stop-opacity:1; stop-color:white"/>
   <stop offset="1" style="stop-opacity:0; stop-color:white"/>
  </linearGradient>
      <rect style="fill:url(#id1)" x="1096" y="677" width="168.191" height="47.426"/>
     </mask>
     <mask id="id2">
  <linearGradient id="id3" gradientUnits="userSpaceOnUse" x1="1221.55" y1="787.581" x2="1143.16" y2="787.581">
   <stop offset="0" style="stop-opacity:1; stop-color:white"/>
   <stop offset="1" style="stop-opacity:0; stop-color:white"/>
  </linearGradient>
      <rect style="fill:url(#id3)" x="1100" y="764" width="164.297" height="47.426"/>
     </mask>
  <linearGradient id="id4" gradientUnits="userSpaceOnUse" x1="684.401" y1="214.192" x2="770.373" y2="214.192">
   <stop offset="0" style="stop-color:#E5097F"/>
   <stop offset="1" style="stop-color:#A82682"/>
  </linearGradient>
  <linearGradient id="id5" gradientUnits="userSpaceOnUse" x1="-0" y1="783.808" x2="390.563" y2="783.808">
   <stop offset="0" style="stop-color:#E6007E"/>
   <stop offset="1" style="stop-color:#A82682"/>
  </linearGradient>
  <linearGradient id="id6" gradientUnits="userSpaceOnUse" xlink:href="#id5" x1="414.386" y1="782.559" x2="462.551" y2="782.559">
  </linearGradient>
  <linearGradient id="id7" gradientUnits="userSpaceOnUse" xlink:href="#id5" x1="1096.81" y1="701.071" x2="1264.02" y2="701.071">
  </linearGradient>
  <linearGradient id="id8" gradientUnits="userSpaceOnUse" xlink:href="#id5" x1="1100.7" y1="787.581" x2="1264.02" y2="787.581">
  </linearGradient>
  <linearGradient id="id9" gradientUnits="userSpaceOnUse" xlink:href="#id5" x1="494.005" y1="780.443" x2="1273.76" y2="780.443">
  </linearGradient>
  <linearGradient id="id10" gradientUnits="userSpaceOnUse" xlink:href="#id5" x1="598.979" y1="262.265" x2="700.54" y2="262.265">
  </linearGradient>
  <linearGradient id="id11" gradientUnits="userSpaceOnUse" xlink:href="#id5" x1="314.089" y1="290.592" x2="915.78" y2="290.592">
  </linearGradient>
 </defs>
 <g id="Слой_x0020_1">
  <metadata id="CorelCorpID_0Corel-Layer"/>
  <g id="_671882592">
   <path class="fil0" d="M559 449c11,3 26,17 64,26 26,6 54,8 82,5 68,-8 133,-49 168,-107 67,-113 32,-251 -71,-315 -86,-54 -200,-46 -273,19 -30,27 -64,70 -72,112l15 -28c36,-60 95,-102 172,-104 47,-2 91,13 122,35 8,5 18,12 23,17 54,54 82,120 63,201 -5,20 -13,41 -23,57 -11,17 -22,32 -34,44 -45,43 -109,66 -177,55 -34,-6 -44,-14 -58,-18z"/>
   <path class="fil0" d="M573 108c-14,-1 -20,-4 -24,1 -2,3 -6,17 -6,20l43 67c7,11 14,23 22,33l7 -6c7,-6 12,-10 23,-12 -11,-22 -51,-79 -65,-102z"/>
   <path class="fil1" d="M703 250c8,-3 15,-8 22,-13 38,-26 46,-21 44,-51 -10,-3 -17,-9 -26,-4l-58 37c7,9 15,14 18,31z"/>
   <path class="fil2" d="M916 336c-1,3 -2,5 -4,9l-1 3c0,0 0,1 -1,1 -26,57 -60,97 -116,127 -106,57 -236,27 -312,-64 -92,-111 -67,-285 45,-362 30,-21 75,-45 122,-48 -59,-6 -122,18 -161,43 -145,94 -175,283 -65,418 67,83 189,124 298,89 61,-19 106,-54 138,-93 22,-26 53,-86 55,-122z"/>
   <path class="fil3" d="M609 271c9,51 92,44 84,-14 -7,-55 -94,-44 -84,14z"/>
   <g>
    <path class="fil4" d="M0 698l0 0c0,10 0,14 9,21 5,5 11,5 21,5l154 0 -10 25c-2,8 -5,20 -5,30l0 91c0,6 4,12 7,15 5,4 10,6 16,6l2 0c12,0 23,-9 23,-24 0,-20 -1,-80 1,-95 2,-11 4,-21 11,-30 1,-2 2,-2 3,-4 1,-1 2,-1 3,-3 9,-7 18,-11 30,-11 23,-1 70,0 96,0 18,0 29,-19 21,-35 -5,-10 -14,-14 -26,-14l-328 0c-15,0 -28,8 -28,22z"/>
    <path class="fil5" d="M414 699l0 171c0,11 11,21 23,22l4 0c6,0 12,-3 16,-9 5,-6 6,-12 6,-23l0 -151c0,-8 -1,-16 -4,-21 -10,-13 -26,-14 -35,-6 -4,4 -9,10 -9,17z"/>
    <path class="fil6" style="mask:url(#id0)" d="M1120 678l121 0c13,0 23,10 23,23l0 0c0,13 -10,23 -23,23l-121 0c-13,0 -23,-10 -23,-23l0 0c0,-13 10,-23 23,-23z"/>
    <path class="fil7" style="mask:url(#id2)" d="M1124 764l117 0c13,0 23,10 23,23l0 0c0,13 -10,23 -23,23l-117 0c-13,0 -23,-10 -23,-23l0 0c0,-13 10,-23 23,-23z"/>
    <path class="fil8" d="M694 890c5,1 11,1 18,-1 6,-1 13,-4 19,-9 6,-5 13,-13 20,-20 7,-7 13,-15 27,-30 14,-16 35,-40 49,-56 14,-16 22,-25 27,-29 4,-4 5,-5 6,-5 1,0 1,0 2,2 0,2 1,6 1,21 0,14 1,39 1,57 0,19 0,32 0,40 0,8 0,12 1,15 1,3 3,6 5,7 2,2 4,3 6,4 2,1 3,3 8,3 5,1 14,1 41,1 27,0 72,0 126,0 55,0 119,0 156,0 37,0 46,0 52,-1 6,-1 9,-4 11,-7 2,-3 3,-5 4,-8 1,-3 2,-6 1,-10 0,-4 -2,-9 -3,-12 -2,-3 -3,-5 -6,-7 -3,-2 -6,-3 -11,-3 -5,-1 -12,0 -69,0 -26,0 -62,0 -100,0l0 -150c0,-13 -10,-23 -23,-23l0 0c-13,0 -23,10 -23,23l0 150c-29,0 -55,0 -75,0 -54,0 -55,0 -55,-2 0,-2 0,-7 0,-28 0,-20 0,-57 0,-76 0,-20 0,-23 -1,-27 -1,-4 -3,-9 -5,-14 -2,-4 -5,-8 -9,-12 -4,-3 -9,-6 -14,-7 -5,-1 -10,-1 -14,-1 -4,0 -7,0 -10,1 -3,1 -7,1 -12,5 -5,3 -11,9 -18,17 -8,8 -17,19 -35,39 -18,20 -44,50 -58,67 -14,17 -17,20 -20,22 -3,2 -7,4 -10,5 -3,0 -5,0 -8,-2 -3,-2 -6,-5 -24,-25 -18,-21 -52,-60 -72,-83 -20,-23 -25,-29 -31,-33 -6,-5 -13,-8 -17,-10 -5,-2 -7,-2 -11,-2 -4,0 -10,1 -15,2 -5,2 -10,5 -14,9 -4,4 -6,7 -9,12 -2,5 -5,10 -6,17 -1,7 -1,15 -1,41 0,26 0,70 1,92 0,22 0,23 2,25 1,2 3,5 5,7 2,2 5,4 7,5 2,1 5,2 8,2 3,0 6,0 9,-1 3,-1 5,-2 7,-3 2,-1 4,-3 5,-5 1,-2 2,-4 3,-5 1,-2 1,-4 2,-5 0,-2 0,-3 0,-14 0,-11 0,-32 0,-50 0,-19 0,-36 0,-46 0,-10 0,-13 1,-16 0,-2 1,-3 1,-4 0,-1 1,0 2,0 1,1 3,2 15,15 12,13 33,37 51,57 18,20 32,37 41,47 9,10 12,14 15,16 3,3 5,5 8,6 2,2 5,3 8,4 3,1 6,2 11,3z"/>
   </g>
  </g>
  <path class="fil9" d="M18 963l50 0c8,0 13,3 13,9l0 3c0,6 -4,9 -12,9l-51 0 0 -21zm-10 59l60 0c17,0 24,-7 24,-17l0 -3c0,-6 -4,-12 -12,-14 6,-1 11,-6 11,-13l0 -3c0,-10 -7,-17 -24,-17l-59 0 0 67zm10 -30l49 0c14,0 16,4 16,9l0 3c0,6 -5,9 -15,9l-50 0 0 -22zm89 -37l0 94 10 0 0 -35c1,1 6,7 20,7l26 0c20,0 28,-11 28,-26l0 -15c0,-14 -7,-26 -28,-26l-27 0c-13,0 -18,6 -19,7l0 -7 -10 0zm10 26c0,-10 6,-18 21,-18l22 0c14,0 22,6 22,18l0 15c0,13 -8,18 -22,18l-22 0c-14,0 -20,-8 -20,-18l0 -15 0 0zm163 0l-66 0c0,-11 7,-18 17,-18l31 0c11,0 18,7 18,18zm10 8l0 -11c0,-12 -9,-24 -29,-24l-28 0c-18,0 -28,12 -28,25l0 18c0,17 9,25 29,25l33 0c18,0 24,-12 24,-21l-10 0c0,8 -5,13 -16,13l-32 0c-11,0 -19,-4 -19,-18l0 -7 76 0zm14 -34l0 67 10 0 0 -59 3 0 36 59 7 0 36 -59 3 0 0 59 10 0 0 -67 -18 0 -34 57 -34 -57 -18 0zm187 41l0 26 10 0 0 -67 -60 0c-14,0 -23,5 -23,17l0 8c0,9 6,16 21,16l3 0 -30 26 14 0 27 -26 38 0zm0 -8l-48 0c-12,0 -15,-4 -15,-10l0 -5c0,-6 3,-10 15,-10l48 0 0 25zm70 -33l0 94 10 0 0 -35c1,1 6,7 20,7l26 0c20,0 28,-11 28,-26l0 -15c0,-14 -7,-26 -28,-26l-27 0c-13,0 -18,6 -19,7l0 -7 -10 0zm10 26c0,-10 6,-18 21,-18l22 0c14,0 22,6 22,18l0 15c0,13 -8,18 -22,18l-22 0c-14,0 -20,-8 -20,-18l0 -15 0 0zm163 0l-66 0c0,-11 7,-18 17,-18l31 0c11,0 18,7 18,18zm10 8l0 -11c0,-12 -9,-24 -29,-24l-28 0c-18,0 -28,12 -28,25l0 18c0,17 9,25 29,25l33 0c18,0 24,-12 24,-21l-10 0c0,8 -5,13 -16,13l-32 0c-11,0 -19,-4 -19,-18l0 -7 76 0zm24 -1l10 0 40 33 14 0 -46 -37 42 -30 -16 0 -35 25 -11 0 0 -25 -10 0 0 67 10 0 0 -33zm152 -25l0 59 10 0 0 -67 -76 0 0 42c0,12 -5,17 -14,17l-3 0 0 8 3 0c15,0 24,-8 24,-25l0 -34 56 0zm24 34l0 8c0,12 8,17 23,17l38 0c8,0 12,-5 12,-5l0 5 10 0 0 -43c0,-15 -7,-24 -25,-24l-29 0c-23,0 -24,11 -24,19l10 0c0,-6 1,-11 17,-11l26 0c12,0 17,6 17,14l0 9c0,0 -1,-5 -12,-5l-39 0c-15,0 -21,7 -21,16zm24 -8l33 0c9,0 15,4 15,12 0,8 -5,12 -15,12l-33 0c-12,0 -15,-4 -15,-10l0 -5c0,-6 2,-10 15,-10zm73 -34l0 67 10 0 0 -59 3 0 36 59 7 0 36 -59 3 0 0 59 10 0 0 -67 -18 0 -34 57 -34 -57 -18 0zm128 0l-10 0 0 67 60 0c14,0 23,-5 23,-17l0 -8c0,-9 -6,-16 -21,-16l-52 0 0 -26zm0 34l49 0c12,0 15,4 15,10l0 5c0,6 -3,10 -15,10l-48 0 0 -25zm98 -34l-10 0 0 67 10 0 0 -67z"/>
 </g>
</svg>
