<svg xmlns="http://www.w3.org/2000/svg" width="981.358" height="808.52" viewBox="0 0 1273 1049" xmlns:xlink="http://www.w3.org/1999/xlink" shape-rendering="geometricPrecision" text-rendering="geometricPrecision" image-rendering="optimizeQuality" fill-rule="evenodd" clip-rule="evenodd"><defs><linearGradient id="id11" gradientUnits="userSpaceOnUse" xlink:href="#id5" x1="314.089" y1="290.592" x2="915.78" y2="290.592"/><linearGradient id="id9" gradientUnits="userSpaceOnUse" xlink:href="#id5" x1="494.005" y1="780.443" x2="1273.76" y2="780.443"/><linearGradient id="id10" gradientUnits="userSpaceOnUse" xlink:href="#id5" x1="598.979" y1="262.265" x2="700.54" y2="262.265"/><linearGradient id="id4" gradientUnits="userSpaceOnUse" x1="684.401" y1="214.192" x2="770.373" y2="214.192"><stop offset="0" stop-color="#e5097f"/><stop offset="1" stop-color="#a82682"/></linearGradient><linearGradient id="id5" gradientUnits="userSpaceOnUse" x1="0" y1="783.808" x2="390.563" y2="783.808"><stop offset="0" stop-color="#e6007e"/><stop offset="1" stop-color="#a82682"/></linearGradient><linearGradient id="id6" gradientUnits="userSpaceOnUse" xlink:href="#id5" x1="414.386" y1="782.559" x2="462.551" y2="782.559"/><linearGradient id="id7" gradientUnits="userSpaceOnUse" xlink:href="#id5" x1="1096.81" y1="701.071" x2="1264.02" y2="701.071"/><linearGradient id="id8" gradientUnits="userSpaceOnUse" xlink:href="#id5" x1="1100.7" y1="787.581" x2="1264.02" y2="787.581"/><mask id="id0"><linearGradient id="id1" gradientUnits="userSpaceOnUse" x1="1220.54" y1="701.071" x2="1140.28" y2="701.071"><stop offset="0" stop-color="#fff"/><stop offset="1" stop-opacity="0" stop-color="#fff"/></linearGradient><path fill="url(#id1)" d="M1096 677h168.191v47.426H1096z"/></mask><mask id="id2"><linearGradient id="id3" gradientUnits="userSpaceOnUse" x1="1221.55" y1="787.581" x2="1143.16" y2="787.581"><stop offset="0" stop-color="#fff"/><stop offset="1" stop-opacity="0" stop-color="#fff"/></linearGradient><path fill="url(#id3)" d="M1100 764h164.297v47.426H1100z"/></mask><style>.fil0{fill:#2b2a29}</style></defs><g id="Слой_x0020_1"><g id="_671882592"><path class="fil0" d="M559 449c11 3 26 17 64 26 26 6 54 8 82 5 68-8 133-49 168-107 67-113 32-251-71-315-86-54-200-46-273 19-30 27-64 70-72 112l15-28c36-60 95-102 172-104 47-2 91 13 122 35 8 5 18 12 23 17 54 54 82 120 63 201-5 20-13 41-23 57-11 17-22 32-34 44-45 43-109 66-177 55-34-6-44-14-58-18z"/><path class="fil0" d="M573 108c-14-1-20-4-24 1-2 3-6 17-6 20l43 67c7 11 14 23 22 33l7-6c7-6 12-10 23-12-11-22-51-79-65-102z"/><path d="M703 250c8-3 15-8 22-13 38-26 46-21 44-51-10-3-17-9-26-4l-58 37c7 9 15 14 18 31z" fill="url(#id4)"/><path d="M916 336c-1 3-2 5-4 9l-1 3s0 1-1 1c-26 57-60 97-116 127-106 57-236 27-312-64-92-111-67-285 45-362 30-21 75-45 122-48-59-6-122 18-161 43-145 94-175 283-65 418 67 83 189 124 298 89 61-19 106-54 138-93 22-26 53-86 55-122z" fill="url(#id11)"/><path d="M609 271c9 51 92 44 84-14-7-55-94-44-84 14z" fill="url(#id10)"/><path d="M0 698c0 10 0 14 9 21 5 5 11 5 21 5h154l-10 25c-2 8-5 20-5 30v91c0 6 4 12 7 15 5 4 10 6 16 6h2c12 0 23-9 23-24 0-20-1-80 1-95 2-11 4-21 11-30 1-2 2-2 3-4 1-1 2-1 3-3 9-7 18-11 30-11 23-1 70 0 96 0 18 0 29-19 21-35-5-10-14-14-26-14H28c-15 0-28 8-28 22z" fill="url(#id5)"/><path d="M414 699v171c0 11 11 21 23 22h4c6 0 12-3 16-9 5-6 6-12 6-23V709c0-8-1-16-4-21-10-13-26-14-35-6-4 4-9 10-9 17z" fill="url(#id6)"/><path d="M1120 678h121c13 0 23 10 23 23s-10 23-23 23h-121c-13 0-23-10-23-23s10-23 23-23z" mask="url(#id0)" fill="url(#id7)"/><path d="M1124 764h117c13 0 23 10 23 23s-10 23-23 23h-117c-13 0-23-10-23-23s10-23 23-23z" mask="url(#id2)" fill="url(#id8)"/><path d="M694 890c5 1 11 1 18-1 6-1 13-4 19-9s13-13 20-20 13-15 27-30l49-56c14-16 22-25 27-29 4-4 5-5 6-5s1 0 2 2c0 2 1 6 1 21 0 14 1 39 1 57v40c0 8 0 12 1 15s3 6 5 7c2 2 4 3 6 4s3 3 8 3c5 1 14 1 41 1h282c37 0 46 0 52-1s9-4 11-7 3-5 4-8 2-6 1-10c0-4-2-9-3-12-2-3-3-5-6-7s-6-3-11-3c-5-1-12 0-69 0h-100V692c0-13-10-23-23-23s-23 10-23 23v150h-75c-54 0-55 0-55-2V736c0-20 0-23-1-27s-3-9-5-14c-2-4-5-8-9-12-4-3-9-6-14-7s-10-1-14-1-7 0-10 1-7 1-12 5c-5 3-11 9-18 17-8 8-17 19-35 39s-44 50-58 67-17 20-20 22-7 4-10 5c-3 0-5 0-8-2s-6-5-24-25c-18-21-52-60-72-83s-25-29-31-33c-6-5-13-8-17-10-5-2-7-2-11-2s-10 1-15 2c-5 2-10 5-14 9s-6 7-9 12c-2 5-5 10-6 17s-1 15-1 41 0 70 1 92c0 22 0 23 2 25 1 2 3 5 5 7s5 4 7 5 5 2 8 2 6 0 9-1 5-2 7-3 4-3 5-5 2-4 3-5c1-2 1-4 2-5V759c0-10 0-13 1-16 0-2 1-3 1-4s1 0 2 0c1 1 3 2 15 15s33 37 51 57 32 37 41 47 12 14 15 16c3 3 5 5 8 6 2 2 5 3 8 4s6 2 11 3z" fill="url(#id9)"/></g><path d="M18 963h50c8 0 13 3 13 9v3c0 6-4 9-12 9H18v-21zm-10 59h60c17 0 24-7 24-17v-3c0-6-4-12-12-14 6-1 11-6 11-13v-3c0-10-7-17-24-17H8v67zm10-30h49c14 0 16 4 16 9v3c0 6-5 9-15 9H18v-22zm89-37v94h10v-35c1 1 6 7 20 7h26c20 0 28-11 28-26v-15c0-14-7-26-28-26h-27c-13 0-18 6-19 7v-7h-10zm10 26c0-10 6-18 21-18h22c14 0 22 6 22 18v15c0 13-8 18-22 18h-22c-14 0-20-8-20-18v-15zm163 0h-66c0-11 7-18 17-18h31c11 0 18 7 18 18zm10 8v-11c0-12-9-24-29-24h-28c-18 0-28 12-28 25v18c0 17 9 25 29 25h33c18 0 24-12 24-21h-10c0 8-5 13-16 13h-32c-11 0-19-4-19-18v-7h76zm14-34v67h10v-59h3l36 59h7l36-59h3v59h10v-67h-18l-34 57-34-57h-18zm187 41v26h10v-67h-60c-14 0-23 5-23 17v8c0 9 6 16 21 16h3l-30 26h14l27-26h38zm0-8h-48c-12 0-15-4-15-10v-5c0-6 3-10 15-10h48v25zm70-33v94h10v-35c1 1 6 7 20 7h26c20 0 28-11 28-26v-15c0-14-7-26-28-26h-27c-13 0-18 6-19 7v-7h-10zm10 26c0-10 6-18 21-18h22c14 0 22 6 22 18v15c0 13-8 18-22 18h-22c-14 0-20-8-20-18v-15zm163 0h-66c0-11 7-18 17-18h31c11 0 18 7 18 18zm10 8v-11c0-12-9-24-29-24h-28c-18 0-28 12-28 25v18c0 17 9 25 29 25h33c18 0 24-12 24-21h-10c0 8-5 13-16 13h-32c-11 0-19-4-19-18v-7h76zm24-1h10l40 33h14l-46-37 42-30h-16l-35 25h-11v-25h-10v67h10v-33zm152-25v59h10v-67h-76v42c0 12-5 17-14 17h-3v8h3c15 0 24-8 24-25v-34h56zm24 34v8c0 12 8 17 23 17h38c8 0 12-5 12-5v5h10v-43c0-15-7-24-25-24h-29c-23 0-24 11-24 19h10c0-6 1-11 17-11h26c12 0 17 6 17 14v9s-1-5-12-5h-39c-15 0-21 7-21 16zm24-8h33c9 0 15 4 15 12s-5 12-15 12h-33c-12 0-15-4-15-10v-5c0-6 2-10 15-10zm73-34v67h10v-59h3l36 59h7l36-59h3v59h10v-67h-18l-34 57-34-57h-18zm128 0h-10v67h60c14 0 23-5 23-17v-8c0-9-6-16-21-16h-52v-26zm0 34h49c12 0 15 4 15 10v5c0 6-3 10-15 10h-48v-25zm98-34h-10v67h10v-67z" fill="#2b2a29" fill-rule="nonzero"/></g></svg>