<svg xmlns="http://www.w3.org/2000/svg" width="34" height="23"><path fill="#fff" d="M33.986.689l-.005.025a.523.523 0 01-.019.06l-7.924 21.849a.571.571 0 01-.531.377.566.566 0 01-.309-.093l-6.568-4.336-6.273 4.247a.558.558 0 01-.432.18l-.007.002h-.001a.558.558 0 01-.157-.026.58.58 0 01-.153-.074c-.01-.006-.019-.007-.027-.014-.006-.004-.01-.01-.015-.014a.579.579 0 01-.086-.09l-.026-.03c-.002-.003-.005-.005-.006-.008-.007-.009-.007-.02-.012-.029a.565.565 0 01-.073-.358v-.02l-1.652-9.31L.293 7.98a.578.578 0 01.15-1.072l32.866-6.9c.015-.003.029 0 .044-.003a.537.537 0 01.192.006c.022.005.043.008.064.015a.542.542 0 01.133.067c.012.007.024.012.035.02a.56.56 0 01.125.132l.011.02.003.002c0 .002 0 .004.002.005l.016.027c.027.054.046.11.056.166.002.011 0 .022.001.033a.62.62 0 01.006.129c-.001.013-.005.027-.007.04l-.004.02zM10.85 12.967l1.234 6.954 1.557-5.14c0-.003.003-.004.004-.006.002-.008.006-.013.01-.02a.598.598 0 01.051-.109c.01-.014.017-.029.028-.043a.586.586 0 01.033-.04.126.126 0 01.02-.02c.02-.02.038-.04.06-.057L27.432 4.34zm4.41 6.503l2.336-1.58-.688-.455-2.403-1.586-1.543 5.178zM2.218 7.711l8.006 4.29L29.459 1.993zM32.25 2.168L15.177 14.92l1.321.872 8.723 5.758z"/></svg>