<svg xmlns="http://www.w3.org/2000/svg" width="50" height="54"><defs><linearGradient id="5n0xa" x1="0" x2="50" y1="27" y2="27" gradientUnits="userSpaceOnUse"><stop offset="0" stop-color="#f82e6f"/><stop offset="1" stop-color="#cf38ef"/></linearGradient></defs><path fill="#fff" d="M42 25a16.96 16.96 0 01-11 15.9V50a1 1 0 01-1 1h-1v2a1 1 0 01-1 1h-6a1 1 0 01-1-1v-2h-1a1 1 0 01-1-1v-9.1A16.96 16.96 0 018 25c0-9.374 7.626-17 17-17 9.374 0 17 7.626 17 17zM29 49v-5h-8v5h1a1 1 0 011 1v2h4v-2a1 1 0 011-1zm11-24c0-8.271-6.729-15-15-15s-15 6.729-15 15c0 6.49 4.145 12.214 10.312 14.242a1 1 0 01.688.95V42h8v-1.808a1 1 0 01.688-.95A14.966 14.966 0 0040 25zM24 5V1a1 1 0 112 0v4a1 1 0 11-2 0zm26 20a1 1 0 01-1 1h-4a1 1 0 110-2h4a1 1 0 011 1zM6 25a1 1 0 01-1 1H1a1 1 0 110-2h4a1 1 0 011 1zM42.678 7.322a.999.999 0 010 1.414l-2.828 2.828a.997.997 0 01-1.414 0 .999.999 0 010-1.414l2.828-2.828a1 1 0 011.414 0zM11.564 38.436a.999.999 0 010 1.414l-2.828 2.828a.996.996 0 01-1.414 0 .999.999 0 010-1.414l2.828-2.828a.999.999 0 011.414 0zm31.114 2.828a.999.999 0 11-1.414 1.414l-2.828-2.828a.999.999 0 111.414-1.414zM7.322 8.736a.999.999 0 111.414-1.414l2.828 2.828a.999.999 0 11-1.414 1.414zM26 14a1 1 0 01-1 1c-5.514 0-10 4.486-10 10a1 1 0 11-2 0c0-6.617 5.383-12 12-12a1 1 0 011 1z"/><path fill="url(#5n0xa)" d="M42 25a16.96 16.96 0 01-11 15.9V50a1 1 0 01-1 1h-1v2a1 1 0 01-1 1h-6a1 1 0 01-1-1v-2h-1a1 1 0 01-1-1v-9.1A16.96 16.96 0 018 25c0-9.374 7.626-17 17-17 9.374 0 17 7.626 17 17zM29 49v-5h-8v5h1a1 1 0 011 1v2h4v-2a1 1 0 011-1zm11-24c0-8.271-6.729-15-15-15s-15 6.729-15 15c0 6.49 4.145 12.214 10.312 14.242a1 1 0 01.688.95V42h8v-1.808a1 1 0 01.688-.95A14.966 14.966 0 0040 25zM24 5V1a1 1 0 112 0v4a1 1 0 11-2 0zm26 20a1 1 0 01-1 1h-4a1 1 0 110-2h4a1 1 0 011 1zM6 25a1 1 0 01-1 1H1a1 1 0 110-2h4a1 1 0 011 1zM42.678 7.322a.999.999 0 010 1.414l-2.828 2.828a.997.997 0 01-1.414 0 .999.999 0 010-1.414l2.828-2.828a1 1 0 011.414 0zM11.564 38.436a.999.999 0 010 1.414l-2.828 2.828a.996.996 0 01-1.414 0 .999.999 0 010-1.414l2.828-2.828a.999.999 0 011.414 0zm31.114 2.828a.999.999 0 11-1.414 1.414l-2.828-2.828a.999.999 0 111.414-1.414zM7.322 8.736a.999.999 0 111.414-1.414l2.828 2.828a.999.999 0 11-1.414 1.414zM26 14a1 1 0 01-1 1c-5.514 0-10 4.486-10 10a1 1 0 11-2 0c0-6.617 5.383-12 12-12a1 1 0 011 1z"/></svg>