<svg xmlns="http://www.w3.org/2000/svg" width="53" height="27"><defs><linearGradient id="7etqa" x1="0" x2="53" y1="13" y2="14" gradientUnits="userSpaceOnUse"><stop offset="0" stop-color="#f82e6f"/><stop offset="1" stop-color="#cf38ef"/></linearGradient></defs><path fill="#fff" d="M19.433 13.501c0 1.986-1.585 3.6-3.533 3.6-1.949 0-3.533-1.614-3.533-3.6 0-1.985 1.584-3.6 3.533-3.6 1.948 0 3.533 1.615 3.533 3.6zm-1.766 0c0-.993-.793-1.8-1.767-1.8-.974 0-1.767.807-1.767 1.8s.793 1.8 1.767 1.8c.974 0 1.767-.807 1.767-1.8zm12.366 0c0 1.986-1.585 3.6-3.533 3.6-1.949 0-3.534-1.614-3.534-3.6 0-1.985 1.585-3.6 3.534-3.6 1.948 0 3.533 1.615 3.533 3.6zm-1.767 0c0-.993-.792-1.8-1.766-1.8-.975 0-1.767.807-1.767 1.8s.792 1.8 1.767 1.8c.974 0 1.766-.807 1.766-1.8zm8.833 3.6c-1.948 0-3.533-1.614-3.533-3.6 0-1.985 1.585-3.6 3.533-3.6 1.949 0 3.534 1.615 3.534 3.6 0 1.986-1.585 3.6-3.534 3.6zm1.767-3.6c0-.993-.792-1.8-1.767-1.8-.974 0-1.766.807-1.766 1.8s.792 1.8 1.766 1.8c.975 0 1.767-.807 1.767-1.8zM13.875 25.466a.911.911 0 010 1.273.872.872 0 01-1.25 0L.26 14.138a.912.912 0 010-1.273L12.626.264a.871.871 0 011.249 0 .911.911 0 010 1.273L2.133 13.5zM52.74 14.138l-12.366 12.6a.872.872 0 01-1.25 0 .911.911 0 010-1.272L50.868 13.5 39.125 1.537a.911.911 0 010-1.273.87.87 0 011.249 0l12.366 12.6a.911.911 0 010 1.274z"/><path fill="url(#7etqa)" d="M19.433 13.501c0 1.986-1.585 3.6-3.533 3.6-1.949 0-3.533-1.614-3.533-3.6 0-1.985 1.584-3.6 3.533-3.6 1.948 0 3.533 1.615 3.533 3.6zm-1.766 0c0-.993-.793-1.8-1.767-1.8-.974 0-1.767.807-1.767 1.8s.793 1.8 1.767 1.8c.974 0 1.767-.807 1.767-1.8zm12.366 0c0 1.986-1.585 3.6-3.533 3.6-1.949 0-3.534-1.614-3.534-3.6 0-1.985 1.585-3.6 3.534-3.6 1.948 0 3.533 1.615 3.533 3.6zm-1.767 0c0-.993-.792-1.8-1.766-1.8-.975 0-1.767.807-1.767 1.8s.792 1.8 1.767 1.8c.974 0 1.766-.807 1.766-1.8zm8.833 3.6c-1.948 0-3.533-1.614-3.533-3.6 0-1.985 1.585-3.6 3.533-3.6 1.949 0 3.534 1.615 3.534 3.6 0 1.986-1.585 3.6-3.534 3.6zm1.767-3.6c0-.993-.792-1.8-1.767-1.8-.974 0-1.766.807-1.766 1.8s.792 1.8 1.766 1.8c.975 0 1.767-.807 1.767-1.8zM13.875 25.466a.911.911 0 010 1.273.872.872 0 01-1.25 0L.26 14.138a.912.912 0 010-1.273L12.626.264a.871.871 0 011.249 0 .911.911 0 010 1.273L2.133 13.5zM52.74 14.138l-12.366 12.6a.872.872 0 01-1.25 0 .911.911 0 010-1.272L50.868 13.5 39.125 1.537a.911.911 0 010-1.273.87.87 0 011.249 0l12.366 12.6a.911.911 0 010 1.274z"/></svg>